<svg xmlns="http://www.w3.org/2000/svg" width="433" height="433"><path d="M76 52l-.212 2.029c-.945 10.343-.974 20.664-.973 31.044-.002 3.09-.02 6.182-.04 9.273-.033 11.972.269 23.819 2.225 35.654l1 1a298.47 298.47 0 011.375 7.5c2.822 15.558 8.533 32.028 20.375 43.063 2.272 1.58 2.272 1.58 5.25 2.437v2l2.652.328c7.497 1.505 14.399 5.898 19.348 11.672l1.707 1.914a321.883 321.883 0 013.664 4.191 170.79 170.79 0 003.754 4.208c7.216 10.343 12.122 24.09 11.875 36.687h2c1.433 13.74 1.186 27.26 0 41h-2l.125 3.313c.01 5.356-1.054 10.458-2.125 15.687l-.566 2.832L145 310h-2l-.309 3.406c-.616 4.932-2.113 9.42-3.754 14.094l-.853 2.492c-.688 2.005-1.385 4.007-2.084 6.008h-2l-.438 2.313C133 341 133 341 132 344c-4.73 1.862-9.962 2.258-15 2v2H98v-2l-2.938.125c-7.46-.03-14.086-2.357-20.898-5.223-1.693-.706-3.424-1.322-5.164-1.902v-2l-2.621-.73c-3.715-1.396-6.3-3.17-9.442-5.582l-3.035-2.301C51.072 326.06 48.47 323.706 46 321v-2l-4-2v-2l-1.707-.633c-3.154-1.88-4.804-4.3-6.98-7.242l-2.387-3.18C29.3 301.458 28.412 299.89 28 297h-2l-.875-2.438c-.858-2.695-.858-2.695-3.125-3.562-.852-2.285-.852-2.285-1.625-5.063l-.79-2.785L19 281h-2c-1.498-3.371-2-5.204-2-9h-2l-.55-2.16c-1.13-4.303-2.224-8.345-4.075-12.402C6.595 252.988 6.277 248.752 6 244H4c-4.679-32.119-5.793-63.892 0-96h2l.184-2.047.253-2.703.247-2.672A44.11 44.11 0 018 134h2l.375-3.063c.606-3.816 1.497-7.252 2.625-10.937h2l2-9h2l2-8h2l.625-2.438C25.407 95.945 27.862 91.838 31 88h2l.188-1.625C34.4 82.83 36.446 80.741 39 78h2l.688-1.688C43.376 73.338 45.466 71.28 48 69h2l1-3c2.563-1.188 2.563-1.188 5-2v-2l1.813-.813c2.206-1.033 2.206-1.033 3.5-2.687 2.546-2.264 5.431-2.701 8.687-3.5v-2c3-1 3-1 6-1z" fill="#5E3E22"/><path d="M104 40h32v2c.905.09.905.09 1.828.184l2.422.254 2.39.246c2.184.292 4.237.737 6.36 1.316v2l2.688.375c3.016.57 5.515 1.391 8.312 2.625v2l6 2v2l2.375.938C171 57 171 57 173 58v2l2.125.563c3.349 1.674 4.96 3.592 7.25 6.488 1.685 2.082 1.685 2.082 4.012 4.328 2.634 2.642 5.042 5.376 7.425 8.246l2.395 2.852C198 85 198 85 198 88h2l2 6h2l3 9h2l2 8h2l.77 2.527c2.322 7.604 2.322 7.604 4.792 15.16.48 1.438.96 2.875 1.438 4.313l.781 2.316c2.993 9.323 4.603 18.885 4.219 28.684h2c1.59 17.973 1.461 36.023 0 54h-2l.188 3.438c0 4.806-.687 9.402-1.5 14.125l-.357 2.144c-.773 4.275-1.925 8.173-3.522 12.21-1.48 3.81-2.717 7.703-3.996 11.583l-.827 2.492A5539.99 5539.99 0 00213 270h-2l-.309 2.602c-.749 3.683-2.017 6.448-3.754 9.773-.547 1.06-1.095 2.12-1.66 3.21L204 288h-2l-.746 2.672c-1.328 3.524-2.897 5.715-5.316 8.578-2.752 3.19-2.752 3.19-4.938 6.75h-2l-.688 1.688c-1.682 2.965-3.848 4.966-6.312 7.312l-2.188 2.313C178 319 178 319 176 319l-1 3c-2.563 1.188-2.563 1.188-5 2v2l-1.938.875c-2.214.953-2.214.953-3.062 3.125a108.636 108.636 0 01-6.188 3.063l-3.417 1.597c-3.186 1.258-6.008 1.924-9.395 2.34v2h-4c.55-4.616 1.866-7.897 4-12 2.122-5.052 3.718-10.247 5.246-15.504.702-2.323 1.495-4.589 2.316-6.871 1.547-4.543 2.254-9.12 2.97-13.855.468-2.77.468-2.77 1.53-6.207 4.272-16.231 2.025-34.965.938-51.563h-2l-3-15h-2l-1.25-3.625c-1.053-2.84-2.208-5.263-3.938-7.75C145 204 145 204 145 202h-2a791.206 791.206 0 01-3-5l-3-2v-2l-2.125-.75c-3.244-1.41-5.947-3.276-8.875-5.25l-3-1v-2l-2.75-.375c-2.84-.546-4.776-1.198-7.25-2.625v-2l-2.277-.742C103.985 175.145 99.656 166.712 97 160c-.75-3-.75-3-1-5h-2a851.788 851.788 0 01-1.5-5.688l-.844-3.199c-.595-2.824-.784-5.241-.656-8.113h-2l-.26-1.728c-.388-2.57-.783-5.14-1.177-7.71l-.409-2.72-.4-2.588-.365-2.396c-.214-1.865-.214-1.865-1.389-2.858-1.07-7.275-1.149-14.63-1.133-21.969l-.003-3.035c0-2.1.001-4.201.006-6.302.005-3.186 0-6.372-.007-9.557a9732 9732 0 01.004-6.168l-.006-2.839c.016-4.718.152-9.42.46-14.128l.172-2.688C85.087 48.6 85.834 47.69 88 46c2.523-1.168 2.523-1.168 5.375-2.188l2.836-1.042c2.744-.758 4.96-.92 7.789-.77v-2zm306.223 199.7c3.349-.258 4.673.219 7.34 2.3 12.883 15.857 17.3 30.8 15.21 51.219-1.902 15.24-7.34 31.917-18.773 42.781-1.176 2.1-1.176 2.1-2 4h-2l-.188 1.688c-1.803 5.133-7.122 8.472-11.187 11.906-1.276 1.104-2.494 2.275-3.688 3.469-2.52 2.52-5.129 4.74-7.937 6.937h-2v2c-4.385 3-4.385 3-7 3v2l-6 2v2l-1.758.77c-3.591 1.582-7.131 3.173-10.617 4.98C357 382 357 382 354 382v2l-2.887.805-3.8 1.07-3.762 1.055c-3.427.961-3.427.961-6.113 2.164-2.954 1.098-5.612 1.324-8.75 1.531l-3.239.227L323 391v2h-36v-2l-1.73-.043c-8.337-.49-15.824-3.234-23.27-6.957v-2l-4-1v-3l10-3v-2c2.906-1.257 4.796-2 8-2v-2c5.75-3 5.75-3 8-3v-2l6-2v-2c4.385-3 4.385-3 7-3v-2l5-2v-2l2.063-1.125c3.543-2.262 5.752-4.99 8.386-8.23L314 340h2v-3h2l.313-1.813c.796-2.533 1.82-3.345 3.687-5.187 4.679-7.193 4.622-13.825 4.688-22.25.042-2.505.087-5.01.136-7.516l.034-3.337c.121-2.475.425-4.537 1.142-6.897h2l.313-2.125c.789-3.301 2.072-5.894 3.687-8.875l1.188-2.438c2.245-3.174 4.913-5.421 7.878-7.914 2.07-1.713 2.07-1.713 4.309-4.086C349 263 349 263 351 263v-2l2.938-1.375c3.133-1.283 3.133-1.283 4.062-3.625 2.903-1.375 4.761-2 8-2v-2a463.78 463.78 0 013.813-1.5l2.144-.844C374 249 374 249 377 249v-2l2.414-.586 3.211-.789 3.164-.773c3.198-.807 3.198-.807 6.207-1.883 5.919-1.91 12.086-2.439 18.227-3.27z" fill="#5E3E22"/><path d="M384 220v2l3.938.688c5.27 1.145 9.509 3.492 14.062 6.312v2l5 2v3c-1.874.34-3.75.671-5.625 1l-3.164.563c-3.117.424-6.07.512-9.211.437v2c-1.702.38-1.702.38-3.438.77L381 241.812l-2.254.502c-3.84.885-7.502 1.907-11.183 3.323C364 247 364 247 362 247v2c-.888.38-.888.38-1.793.77-4.258 1.854-8.23 3.82-12.207 6.23h-2v2l-2.125 1.188c-3.184 2.007-5.096 4.198-7.445 7.093C335 268 335 268 333.484 269.47c-1.666 1.719-2.852 3.495-4.109 5.531l-1.29 2.063c-1.226 2.046-1.226 2.046-2.085 4.937h-2c-1.382 9.973-2.205 19.634-1.973 29.707-.022 2.7-.2 4.75-1.027 7.293h-2l-.188 2c-1.767 6.525-5.914 11.47-10.812 16l-2.688 2.813C303 342 303 342 301 342l-1 3a121.199 121.199 0 01-6 5c-3.373 2.614-3.373 2.614-6.438 5.563-2.631 2.42-5.932 4.437-9.562 4.437v2l-7 2v2l-9 3v2l-8 2v2h-4v-2l-5-2v-2l-1.688-.625c-5.43-3.228-9.514-9.79-12.312-15.375v-3h-2c-5.079-21.04-3.633-40.073 5-60h2l.438-2.375C237 285 237 285 238 283h2l2-6h2l.34-1.762c1.941-6.583 7.68-11.33 12.777-15.574 1.744-1.541 3.139-3.086 4.57-4.914 2.299-2.733 4.226-4.044 7.313-5.75l1.363-1.383c1.917-1.894 3.959-3.31 6.2-4.804l2.378-1.606C281 240 281 240 283 240v-2c2.1-1.174 4.205-2.34 6.313-3.5l1.802-1.012c2.843-1.556 4.592-2.488 7.885-2.488v-2c3.661-1.348 7.328-2.68 11-4l2.594-.934 2.344-.816 2.09-.734C319 222 319 222 323 222v-2c20.674-3.804 40.372-4.326 61 0z" fill="#5E3E22"/></svg>