<?xml version="1.0" encoding="UTF-8"?>
<svg version="1.1" xmlns="http://www.w3.org/2000/svg" width="433" height="433">
<path d="M0 0 C-0.07001221 0.66942627 -0.14002441 1.33885254 -0.2121582 2.02856445 C-1.15718956 12.37210396 -1.18611971 22.69283182 -1.18530273 33.07250977 C-1.18748322 36.16371567 -1.2056815 39.25456027 -1.22460938 42.34570312 C-1.2582475 54.31764456 -0.95615284 66.16459767 1 78 C1.33 78.33 1.66 78.66 2 79 C2.49360282 81.49774923 2.94503884 83.99128473 3.375 86.5 C6.19733689 102.05789707 11.90837083 118.52825464 23.75 129.5625 C26.02197567 131.14303465 26.02197567 131.14303465 29 132 C29 132.66 29 133.32 29 134 C30.31291016 134.16242188 30.31291016 134.16242188 31.65234375 134.328125 C39.14929879 135.83276475 46.05089975 140.22604971 51 146 C51.56332031 146.63164062 52.12664062 147.26328125 52.70703125 147.9140625 C53.94038733 149.30061439 55.16190292 150.69779304 56.37109375 152.10546875 C57.59639875 153.53058368 58.85331793 154.92861069 60.125 156.3125 C67.34135456 166.65594154 72.2469887 180.40357633 72 193 C72.66 193 73.32 193 74 193 C75.43279621 206.73949224 75.18565194 220.25914096 74 234 C73.34 234 72.68 234 72 234 C72.04125 235.093125 72.0825 236.18625 72.125 237.3125 C72.13453048 242.66863176 71.07077384 247.7711847 70 253 C69.81308594 253.93457031 69.62617188 254.86914062 69.43359375 255.83203125 C69.29050781 256.54746094 69.14742187 257.26289063 69 258 C68.34 258 67.68 258 67 258 C66.89816406 259.1240625 66.79632813 260.248125 66.69140625 261.40625 C66.07499794 266.33751647 64.57786486 270.82629223 62.9375 275.5 C62.65583984 276.32242187 62.37417969 277.14484375 62.08398438 277.9921875 C61.39622757 279.99717343 60.69908924 281.99893723 60 284 C59.34 284 58.68 284 58 284 C57.855625 284.763125 57.71125 285.52625 57.5625 286.3125 C57 289 57 289 56 292 C51.2699378 293.8621508 46.03757758 294.25833731 41 294 C41 294.66 41 295.32 41 296 C34.73 296 28.46 296 22 296 C22 295.34 22 294.68 22 294 C20.5459375 294.061875 20.5459375 294.061875 19.0625 294.125 C11.60289666 294.09504175 4.97642549 291.76786151 -1.8359375 288.90234375 C-3.52908366 288.19635681 -5.25969965 287.58010012 -7 287 C-7 286.34 -7 285.68 -7 285 C-7.86496094 284.75894531 -8.72992188 284.51789063 -9.62109375 284.26953125 C-13.33563108 282.87389584 -15.92056755 281.0996933 -19.0625 278.6875 C-20.06410156 277.92824219 -21.06570312 277.16898437 -22.09765625 276.38671875 C-24.92735209 274.05974141 -27.52975369 271.70593954 -30 269 C-30 268.34 -30 267.68 -30 267 C-31.32 266.34 -32.64 265.68 -34 265 C-34 264.34 -34 263.68 -34 263 C-34.56332031 262.79117187 -35.12664063 262.58234375 -35.70703125 262.3671875 C-38.86052834 260.48690814 -40.51107804 258.06766639 -42.6875 255.125 C-43.47511719 254.07570313 -44.26273438 253.02640625 -45.07421875 251.9453125 C-46.70044924 249.45813646 -47.58826187 247.88914552 -48 245 C-48.66 245 -49.32 245 -50 245 C-50.28875 244.195625 -50.5775 243.39125 -50.875 242.5625 C-51.73262568 239.8673532 -51.73262568 239.8673532 -54 239 C-54.8515625 236.71484375 -54.8515625 236.71484375 -55.625 233.9375 C-56.01558594 232.55884766 -56.01558594 232.55884766 -56.4140625 231.15234375 C-56.70410156 230.08693359 -56.70410156 230.08693359 -57 229 C-57.66 229 -58.32 229 -59 229 C-60.49821059 225.62902617 -61 223.79557881 -61 220 C-61.66 220 -62.32 220 -63 220 C-63.18175781 219.28714844 -63.36351562 218.57429687 -63.55078125 217.83984375 C-64.68017658 213.53655795 -65.77423539 209.49494548 -67.625 205.4375 C-69.40498637 200.98753407 -69.72267907 196.75270698 -70 192 C-70.66 192 -71.32 192 -72 192 C-76.67891708 159.88141306 -77.79308257 128.10846826 -72 96 C-71.34 96 -70.68 96 -70 96 C-69.93941406 95.32453125 -69.87882812 94.6490625 -69.81640625 93.953125 C-69.73261719 93.06109375 -69.64882812 92.1690625 -69.5625 91.25 C-69.48128906 90.36828125 -69.40007812 89.4865625 -69.31640625 88.578125 C-69.03761535 86.30649548 -68.61209423 84.20148177 -68 82 C-67.34 82 -66.68 82 -66 82 C-65.87625 80.989375 -65.7525 79.97875 -65.625 78.9375 C-65.01914665 75.12062388 -64.12806088 71.68499888 -63 68 C-62.34 68 -61.68 68 -61 68 C-60.34 65.03 -59.68 62.06 -59 59 C-58.34 59 -57.68 59 -57 59 C-56.34 56.36 -55.68 53.72 -55 51 C-54.34 51 -53.68 51 -53 51 C-52.690625 49.7934375 -52.690625 49.7934375 -52.375 48.5625 C-50.59292361 43.94530207 -48.13828288 39.83757417 -45 36 C-44.34 36 -43.68 36 -43 36 C-42.938125 35.46375 -42.87625 34.9275 -42.8125 34.375 C-41.59964736 30.82973843 -39.55389074 28.7407608 -37 26 C-36.34 26 -35.68 26 -35 26 C-34.773125 25.443125 -34.54625 24.88625 -34.3125 24.3125 C-32.62449964 21.33840412 -30.53323483 19.27991135 -28 17 C-27.34 17 -26.68 17 -26 17 C-25.505 15.515 -25.505 15.515 -25 14 C-22.4375 12.8125 -22.4375 12.8125 -20 12 C-20 11.34 -20 10.68 -20 10 C-19.401875 9.731875 -18.80375 9.46375 -18.1875 9.1875 C-15.98122575 8.1537126 -15.98122575 8.1537126 -14.6875 6.5 C-12.14103713 4.23647745 -9.25554744 3.7985305 -6 3 C-6 2.34 -6 1.68 -6 1 C-3 0 -3 0 0 0 Z " fill="#5E3E22" transform="translate(76,52)"/>
<path d="M0 0 C10.56 0 21.12 0 32 0 C32 0.66 32 1.32 32 2 C32.90492188 2.09087891 32.90492188 2.09087891 33.828125 2.18359375 C35.02695313 2.30927734 35.02695313 2.30927734 36.25 2.4375 C37.43335938 2.55931641 37.43335938 2.55931641 38.640625 2.68359375 C40.82364639 2.97634993 42.8773182 3.42064419 45 4 C45 4.66 45 5.32 45 6 C45.886875 6.12375 46.77375 6.2475 47.6875 6.375 C50.70387502 6.94412736 53.20326054 7.76614436 56 9 C56 9.66 56 10.32 56 11 C57.98 11.66 59.96 12.32 62 13 C62 13.66 62 14.32 62 15 C63.175625 15.4640625 63.175625 15.4640625 64.375 15.9375 C67 17 67 17 69 18 C69 18.66 69 19.32 69 20 C69.70125 20.185625 70.4025 20.37125 71.125 20.5625 C74.47358251 22.23679125 76.08409172 24.15460459 78.375 27.05078125 C80.06007067 29.13280534 80.06007067 29.13280534 82.38671875 31.37890625 C85.02140827 34.02147227 87.4287378 36.75499775 89.8125 39.625 C90.60269531 40.56601563 91.39289063 41.50703125 92.20703125 42.4765625 C94 45 94 45 94 48 C94.66 48 95.32 48 96 48 C96.99 50.97 96.99 50.97 98 54 C98.66 54 99.32 54 100 54 C100.99 56.97 101.98 59.94 103 63 C103.66 63 104.32 63 105 63 C105.99 66.96 105.99 66.96 107 71 C107.66 71 108.32 71 109 71 C109.25394531 71.83402344 109.50789062 72.66804688 109.76953125 73.52734375 C112.09215301 81.13102701 112.09215301 81.13102701 114.5625 88.6875 C115.04244912 90.12473895 115.52161338 91.56224022 116 93 C116.2578125 93.76441406 116.515625 94.52882813 116.78125 95.31640625 C119.77405899 104.63900627 121.38427045 114.20110353 121 124 C121.66 124 122.32 124 123 124 C124.59003659 141.9730922 124.46116015 160.02251173 123 178 C122.34 178 121.68 178 121 178 C121.061875 179.134375 121.12375 180.26875 121.1875 181.4375 C121.1875 186.24354745 120.50123718 190.8401479 119.6875 195.5625 C119.51093872 196.62392212 119.51093872 196.62392212 119.33081055 197.70678711 C118.55751016 201.98195576 117.40550963 205.88031939 115.80932617 209.91772461 C114.3289694 213.72646154 113.0920764 217.62019796 111.8125 221.5 C111.53986328 222.32242188 111.26722656 223.14484375 110.98632812 223.9921875 C110.32282708 225.99433101 109.6612138 227.99709996 109 230 C108.34 230 107.68 230 107 230 C106.89816406 230.85851562 106.79632813 231.71703125 106.69140625 232.6015625 C105.94202588 236.28495755 104.67376769 239.05023208 102.9375 242.375 C102.38964844 243.43460938 101.84179688 244.49421875 101.27734375 245.5859375 C100.85582031 246.38257813 100.43429688 247.17921875 100 248 C99.34 248 98.68 248 98 248 C97.75378906 248.88171875 97.50757813 249.7634375 97.25390625 250.671875 C95.92611151 254.19611525 94.35706486 256.38692144 91.9375 259.25 C89.18604407 262.44008632 89.18604407 262.44008632 87 266 C86.34 266 85.68 266 85 266 C84.773125 266.556875 84.54625 267.11375 84.3125 267.6875 C82.6296426 270.65253447 80.46378626 272.65353689 78 275 C77.278125 275.763125 76.55625 276.52625 75.8125 277.3125 C74 279 74 279 72 279 C71.67 279.99 71.34 280.98 71 282 C68.4375 283.1875 68.4375 283.1875 66 284 C66 284.66 66 285.32 66 286 C65.0409375 286.433125 65.0409375 286.433125 64.0625 286.875 C61.84793921 287.82823451 61.84793921 287.82823451 61 290 C58.97451186 291.09243066 56.90330375 292.10096652 54.8125 293.0625 C53.68457031 293.58972656 52.55664062 294.11695313 51.39453125 294.66015625 C48.20858132 295.91767158 45.38732268 296.5836523 42 297 C42 297.66 42 298.32 42 299 C40.68 299 39.36 299 38 299 C38.54948958 294.38428756 39.86624435 291.10337625 42 287 C44.12153062 281.94769513 45.71782967 276.75300212 47.24609375 271.49609375 C47.94763452 269.17337588 48.74115703 266.90742543 49.5625 264.625 C51.10903703 260.08204746 51.81647237 255.50493304 52.53125 250.76953125 C53 248 53 248 54.0625 244.5625 C58.33378179 228.33162919 56.08712807 209.59811608 55 193 C54.34 193 53.68 193 53 193 C51.515 185.575 51.515 185.575 50 178 C49.34 178 48.68 178 48 178 C47.5875 176.80375 47.175 175.6075 46.75 174.375 C45.69741724 171.53453743 44.54204908 169.1116115 42.8125 166.625 C41 164 41 164 41 162 C40.34 162 39.68 162 39 162 C37.9935725 160.33720673 36.99414593 158.67016516 36 157 C35.01 156.34 34.02 155.68 33 155 C33 154.34 33 153.68 33 153 C31.948125 152.62875 31.948125 152.62875 30.875 152.25 C27.63109126 150.83960489 24.92843341 148.97350947 22 147 C21.01 146.67 20.02 146.34 19 146 C19 145.34 19 144.68 19 144 C17.63875 143.814375 17.63875 143.814375 16.25 143.625 C13.41029677 143.07890323 11.47409409 142.42736197 9 141 C9 140.34 9 139.68 9 139 C8.24847656 138.75507813 7.49695313 138.51015625 6.72265625 138.2578125 C-0.01458884 135.1453406 -4.34449055 126.71172719 -7 120 C-7.75 117 -7.75 117 -8 115 C-8.66 115 -9.32 115 -10 115 C-10.50744423 113.10614563 -11.00564574 111.20981334 -11.5 109.3125 C-11.7784375 108.25675781 -12.056875 107.20101562 -12.34375 106.11328125 C-12.9391715 103.28857328 -13.12786492 100.87163292 -13 98 C-13.66 98 -14.32 98 -15 98 C-15.08564209 97.42967041 -15.17128418 96.85934082 -15.25952148 96.27172852 C-15.647928 93.70132184 -16.04262829 91.13192106 -16.4375 88.5625 C-16.57220703 87.66466797 -16.70691406 86.76683594 -16.84570312 85.84179688 C-16.97783203 84.98779297 -17.10996094 84.13378906 -17.24609375 83.25390625 C-17.42676392 82.06776733 -17.42676392 82.06776733 -17.61108398 80.85766602 C-17.82462442 78.99297383 -17.82462442 78.99297383 -19 78 C-20.07067968 70.7246189 -20.1486704 63.37006463 -20.1328125 56.03125 C-20.13376923 55.02968872 -20.13472595 54.02812744 -20.13571167 52.99621582 C-20.13638697 50.89542579 -20.13457849 48.79463359 -20.13037109 46.69384766 C-20.1250136 43.5080896 -20.13033841 40.3224725 -20.13671875 37.13671875 C-20.13605785 35.08072886 -20.13477645 33.02473906 -20.1328125 30.96875 C-20.13483673 30.03196411 -20.13686096 29.09517822 -20.13894653 28.13000488 C-20.12250664 23.41191432 -19.98746459 18.71046277 -19.67919922 14.00195312 C-19.62238983 13.11479614 -19.56558044 12.22763916 -19.50704956 11.31359863 C-18.91254317 8.60094628 -18.16557731 7.68977957 -16 6 C-13.4765625 4.83203125 -13.4765625 4.83203125 -10.625 3.8125 C-9.68914062 3.46832031 -8.75328125 3.12414063 -7.7890625 2.76953125 C-5.04476969 2.01235242 -2.82903379 1.85083276 0 2 C0 1.34 0 0.68 0 0 Z " fill="#5E3E22" transform="translate(104,40)"/>
<path d="M0 0 C3.34899179 -0.25761475 4.67313314 0.21944614 7.33984375 2.30078125 C20.22352367 18.15761807 24.6397266 33.10149592 22.55029297 53.51953125 C20.64869305 68.75916089 15.21119026 85.43695055 3.77734375 96.30078125 C2.60159664 98.40067777 2.60159664 98.40067777 1.77734375 100.30078125 C1.11734375 100.30078125 0.45734375 100.30078125 -0.22265625 100.30078125 C-0.28453125 100.85765625 -0.34640625 101.41453125 -0.41015625 101.98828125 C-2.21395525 107.12217073 -7.53283902 110.46046152 -11.59765625 113.89453125 C-12.87371521 114.99881304 -14.09189082 116.17001582 -15.28515625 117.36328125 C-17.80489669 119.88302169 -20.41419783 122.10285727 -23.22265625 124.30078125 C-23.88265625 124.30078125 -24.54265625 124.30078125 -25.22265625 124.30078125 C-25.22265625 124.96078125 -25.22265625 125.62078125 -25.22265625 126.30078125 C-29.60727163 129.30078125 -29.60727163 129.30078125 -32.22265625 129.30078125 C-32.22265625 129.96078125 -32.22265625 130.62078125 -32.22265625 131.30078125 C-34.20265625 131.96078125 -36.18265625 132.62078125 -38.22265625 133.30078125 C-38.22265625 133.96078125 -38.22265625 134.62078125 -38.22265625 135.30078125 C-38.80273438 135.55472656 -39.3828125 135.80867187 -39.98046875 136.0703125 C-43.57176917 137.65261813 -47.11202287 139.24341579 -50.59765625 141.05078125 C-53.22265625 142.30078125 -53.22265625 142.30078125 -56.22265625 142.30078125 C-56.22265625 142.96078125 -56.22265625 143.62078125 -56.22265625 144.30078125 C-57.17527344 144.56632813 -58.12789063 144.831875 -59.109375 145.10546875 C-60.99076172 145.63527344 -60.99076172 145.63527344 -62.91015625 146.17578125 C-64.77220703 146.69785156 -64.77220703 146.69785156 -66.671875 147.23046875 C-70.0987778 148.19215372 -70.0987778 148.19215372 -72.78515625 149.39453125 C-75.73852471 150.4925785 -78.3964672 150.71883472 -81.53515625 150.92578125 C-83.13810547 151.03792969 -83.13810547 151.03792969 -84.7734375 151.15234375 C-85.58167969 151.20132813 -86.38992188 151.2503125 -87.22265625 151.30078125 C-87.22265625 151.96078125 -87.22265625 152.62078125 -87.22265625 153.30078125 C-99.10265625 153.30078125 -110.98265625 153.30078125 -123.22265625 153.30078125 C-123.22265625 152.64078125 -123.22265625 151.98078125 -123.22265625 151.30078125 C-123.79371094 151.28660156 -124.36476563 151.27242187 -124.953125 151.2578125 C-133.29006757 150.76740411 -140.77710839 148.02355518 -148.22265625 144.30078125 C-148.22265625 143.64078125 -148.22265625 142.98078125 -148.22265625 142.30078125 C-149.54265625 141.97078125 -150.86265625 141.64078125 -152.22265625 141.30078125 C-152.22265625 140.31078125 -152.22265625 139.32078125 -152.22265625 138.30078125 C-148.92265625 137.31078125 -145.62265625 136.32078125 -142.22265625 135.30078125 C-142.22265625 134.64078125 -142.22265625 133.98078125 -142.22265625 133.30078125 C-139.31665364 132.04413147 -137.42661041 131.30078125 -134.22265625 131.30078125 C-134.22265625 130.64078125 -134.22265625 129.98078125 -134.22265625 129.30078125 C-128.47265625 126.30078125 -128.47265625 126.30078125 -126.22265625 126.30078125 C-126.22265625 125.64078125 -126.22265625 124.98078125 -126.22265625 124.30078125 C-123.25265625 123.31078125 -123.25265625 123.31078125 -120.22265625 122.30078125 C-120.22265625 121.64078125 -120.22265625 120.98078125 -120.22265625 120.30078125 C-115.83804087 117.30078125 -115.83804087 117.30078125 -113.22265625 117.30078125 C-113.22265625 116.64078125 -113.22265625 115.98078125 -113.22265625 115.30078125 C-110.74765625 114.31078125 -110.74765625 114.31078125 -108.22265625 113.30078125 C-108.22265625 112.64078125 -108.22265625 111.98078125 -108.22265625 111.30078125 C-107.54203125 110.92953125 -106.86140625 110.55828125 -106.16015625 110.17578125 C-102.61656433 107.91391406 -100.40732781 105.18657441 -97.7734375 101.9453125 C-97.26167969 101.40261719 -96.74992187 100.85992187 -96.22265625 100.30078125 C-95.56265625 100.30078125 -94.90265625 100.30078125 -94.22265625 100.30078125 C-94.22265625 99.31078125 -94.22265625 98.32078125 -94.22265625 97.30078125 C-93.56265625 97.30078125 -92.90265625 97.30078125 -92.22265625 97.30078125 C-92.06796875 96.40359375 -92.06796875 96.40359375 -91.91015625 95.48828125 C-91.11385055 92.95458129 -90.08985111 92.1424766 -88.22265625 90.30078125 C-83.54370019 83.10763204 -83.60029499 76.47539138 -83.53515625 68.05078125 C-83.4930616 65.54551206 -83.4476361 63.040296 -83.3984375 60.53515625 C-83.38723877 59.43397461 -83.37604004 58.33279297 -83.36450195 57.19824219 C-83.24329121 54.72228853 -82.93933717 52.66085482 -82.22265625 50.30078125 C-81.56265625 50.30078125 -80.90265625 50.30078125 -80.22265625 50.30078125 C-80.11953125 49.59953125 -80.01640625 48.89828125 -79.91015625 48.17578125 C-79.12076934 44.87470873 -77.83757086 42.28216208 -76.22265625 39.30078125 C-75.83078125 38.49640625 -75.43890625 37.69203125 -75.03515625 36.86328125 C-72.79004564 33.68915936 -70.1220206 31.44155441 -67.15625 28.94921875 C-65.08655087 27.23610883 -65.08655087 27.23610883 -62.84765625 24.86328125 C-61.22265625 23.30078125 -61.22265625 23.30078125 -59.22265625 23.30078125 C-59.22265625 22.64078125 -59.22265625 21.98078125 -59.22265625 21.30078125 C-58.25328125 20.84703125 -57.28390625 20.39328125 -56.28515625 19.92578125 C-53.15186043 18.64291904 -53.15186043 18.64291904 -52.22265625 16.30078125 C-49.32005814 14.92586635 -47.4612692 14.30078125 -44.22265625 14.30078125 C-44.22265625 13.64078125 -44.22265625 12.98078125 -44.22265625 12.30078125 C-42.95426099 11.79462827 -41.68282523 11.29609026 -40.41015625 10.80078125 C-39.70246094 10.52234375 -38.99476563 10.24390625 -38.265625 9.95703125 C-36.22265625 9.30078125 -36.22265625 9.30078125 -33.22265625 9.30078125 C-33.22265625 8.64078125 -33.22265625 7.98078125 -33.22265625 7.30078125 C-32.42601562 7.10742188 -31.629375 6.9140625 -30.80859375 6.71484375 C-29.74898438 6.45445312 -28.689375 6.1940625 -27.59765625 5.92578125 C-26.03144531 5.54292969 -26.03144531 5.54292969 -24.43359375 5.15234375 C-21.23571516 4.34559759 -21.23571516 4.34559759 -18.2265625 3.26953125 C-12.30774198 1.36073087 -6.14090411 0.83101866 0 0 Z " fill="#5E3E22" transform="translate(410.22265625,239.69921875)"/>
<path d="M0 0 C0 0.66 0 1.32 0 2 C1.9490625 2.3403125 1.9490625 2.3403125 3.9375 2.6875 C9.20738754 3.83349142 13.44662857 6.17970847 18 9 C18 9.66 18 10.32 18 11 C19.65 11.66 21.3 12.32 23 13 C23 13.99 23 14.98 23 16 C21.12612523 16.3396019 19.25083303 16.67138691 17.375 17 C15.80878906 17.2784375 15.80878906 17.2784375 14.2109375 17.5625 C11.09425135 17.98715797 8.14069188 18.07545206 5 18 C5 18.66 5 19.32 5 20 C3.2984375 20.38091797 3.2984375 20.38091797 1.5625 20.76953125 C0.04160034 21.11689722 -1.47922929 21.46456993 -3 21.8125 C-3.74378906 21.97814453 -4.48757813 22.14378906 -5.25390625 22.31445312 C-9.09394998 23.19933277 -12.75637333 24.22134884 -16.4375 25.63671875 C-20 27 -20 27 -22 27 C-22 27.66 -22 28.32 -22 29 C-22.88751953 29.38091797 -22.88751953 29.38091797 -23.79296875 29.76953125 C-28.05083126 31.62409779 -32.02387516 33.59022737 -36 36 C-36.66 36 -37.32 36 -38 36 C-38 36.66 -38 37.32 -38 38 C-39.051875 38.5878125 -39.051875 38.5878125 -40.125 39.1875 C-43.30892393 41.19475639 -45.22115651 43.38607397 -47.5703125 46.28125 C-49 48 -49 48 -50.515625 49.46875 C-52.18222295 51.18797736 -53.36797642 52.96408451 -54.625 55 C-55.05039062 55.680625 -55.47578125 56.36125 -55.9140625 57.0625 C-57.14062508 59.10857366 -57.14062508 59.10857366 -58 62 C-58.66 62 -59.32 62 -60 62 C-61.38243676 71.97329375 -62.2050409 81.63366204 -61.97265625 91.70703125 C-61.99508279 94.40782745 -62.1735761 96.45666443 -63 99 C-63.66 99 -64.32 99 -65 99 C-65.0928125 99.99 -65.0928125 99.99 -65.1875 101 C-66.95467329 107.52494752 -71.10170258 112.46907489 -76 117 C-76.886875 117.928125 -77.77375 118.85625 -78.6875 119.8125 C-81 122 -81 122 -83 122 C-83.495 123.485 -83.495 123.485 -84 125 C-85.96951331 126.74570498 -87.92806244 128.38738354 -90 130 C-93.37291325 132.61444496 -93.37291325 132.61444496 -96.4375 135.5625 C-99.06944128 137.98388598 -102.36956444 140 -106 140 C-106 140.66 -106 141.32 -106 142 C-109.465 142.99 -109.465 142.99 -113 144 C-113 144.66 -113 145.32 -113 146 C-115.97 146.99 -118.94 147.98 -122 149 C-122 149.66 -122 150.32 -122 151 C-125.96 151.99 -125.96 151.99 -130 153 C-130 153.66 -130 154.32 -130 155 C-131.32 155 -132.64 155 -134 155 C-134 154.34 -134 153.68 -134 153 C-135.65 152.34 -137.3 151.68 -139 151 C-139 150.34 -139 149.68 -139 149 C-139.556875 148.79375 -140.11375 148.5875 -140.6875 148.375 C-146.11709642 145.14659132 -150.20162914 138.58483375 -153 133 C-153 132.01 -153 131.02 -153 130 C-153.66 130 -154.32 130 -155 130 C-160.07860823 108.9600516 -158.63290671 89.92734198 -150 70 C-149.34 70 -148.68 70 -148 70 C-147.855625 69.21625 -147.71125 68.4325 -147.5625 67.625 C-147 65 -147 65 -146 63 C-145.34 63 -144.68 63 -144 63 C-143.34 61.02 -142.68 59.04 -142 57 C-141.34 57 -140.68 57 -140 57 C-139.83177734 56.12794922 -139.83177734 56.12794922 -139.66015625 55.23828125 C-137.71862328 48.65545052 -131.97989029 43.90839724 -126.8828125 39.6640625 C-125.13860558 38.12250203 -123.74410279 36.5777696 -122.3125 34.75 C-120.01440295 32.01712783 -118.0873308 30.7061565 -115 29 C-114.55011719 28.54367188 -114.10023438 28.08734375 -113.63671875 27.6171875 C-111.71964071 25.72298629 -109.67834383 24.30762644 -107.4375 22.8125 C-106.65246094 22.28269531 -105.86742187 21.75289062 -105.05859375 21.20703125 C-103 20 -103 20 -101 20 C-101 19.34 -101 18.68 -101 18 C-98.89983377 16.82558465 -96.79541245 15.66035988 -94.6875 14.5 C-94.09259766 14.16613281 -93.49769531 13.83226562 -92.88476562 13.48828125 C-90.04171156 11.93174886 -88.29339012 11 -85 11 C-85 10.34 -85 9.68 -85 9 C-81.33861851 7.65179037 -77.67161814 6.3200792 -74 5 C-73.1440625 4.69191406 -72.288125 4.38382813 -71.40625 4.06640625 C-70.6328125 3.79699219 -69.859375 3.52757812 -69.0625 3.25 C-68.37285156 3.00765625 -67.68320312 2.7653125 -66.97265625 2.515625 C-65 2 -65 2 -61 2 C-61 1.34 -61 0.68 -61 0 C-40.32558349 -3.80427379 -20.62769962 -4.32640891 0 0 Z " fill="#5E3E22" transform="translate(384,220)"/>
</svg>
